<svg width="21" height="19" viewBox="0 0 21 19" fill="none" xmlns="http://www.w3.org/2000/svg">
<path fill-rule="evenodd" clip-rule="evenodd" d="M20.25 9.49992C20.25 9.17669 20.1216 8.8667 19.893 8.63814C19.6645 8.40958 19.3545 8.28117 19.0313 8.28117L4.91081 8.28117L10.1441 3.0503C10.2574 2.93699 10.3473 2.80246 10.4087 2.65441C10.47 2.50636 10.5015 2.34768 10.5015 2.18742C10.5015 2.02717 10.47 1.86849 10.4087 1.72044C10.3473 1.57239 10.2574 1.43786 10.1441 1.32455C10.0308 1.21123 9.89629 1.12135 9.74823 1.06002C9.60018 0.998699 9.4415 0.967136 9.28125 0.967136C9.121 0.967136 8.96232 0.998699 8.81427 1.06002C8.66621 1.12135 8.53169 1.21123 8.41838 1.32455L1.10588 8.63705C0.992377 8.75026 0.90233 8.88475 0.840889 9.03282C0.779448 9.18089 0.747822 9.33962 0.747822 9.49992C0.747822 9.66023 0.779448 9.81897 0.840889 9.96703C0.90233 10.1151 0.992377 10.2496 1.10588 10.3628L8.41838 17.6753C8.53169 17.7886 8.66621 17.8785 8.81427 17.9398C8.96232 18.0012 9.121 18.0327 9.28125 18.0327C9.4415 18.0327 9.60018 18.0012 9.74823 17.9398C9.89629 17.8785 10.0308 17.7886 10.1441 17.6753C10.373 17.4465 10.5015 17.1361 10.5015 16.8124C10.5015 16.6522 10.47 16.4935 10.4087 16.3454C10.3473 16.1974 10.2574 16.0629 10.1441 15.9495L4.91081 10.7187L19.0312 10.7187C19.3545 10.7187 19.6645 10.5903 19.893 10.3617C20.1216 10.1332 20.25 9.82316 20.25 9.49992Z" fill="#FFFFFF"/>
</svg>
