<?xml version="1.0" encoding="utf-8"?>
<svg viewBox="0 0 500 500" xmlns="http://www.w3.org/2000/svg">
	<defs>
		<linearGradient id="paint0_linear_96_17" x1="172.608" y1="517.039" x2="857.419" y2="517.039" gradientUnits="userSpaceOnUse" gradientTransform="matrix(1.99121, 0, 0, -1.99121, -82.839554, 2061.494144)">
			<stop stop-color="#3786E1"/>
			<stop offset="1" stop-color="#6C25E1"/>
		</linearGradient>
	</defs>
	<g id="g8" transform="matrix(4.481141, 0, 0, -4.481141, -230.511093, 574.598389)" style="visibility: visible;">
		<g id="g10" transform="matrix(0.050331, 0, 0, 0.050331, 56.902359, 23.632202)" style="visibility: visible;">
			<path d="M 0,1927.56 H 1927.56 V 0 H 0 v 1927.56" style="fill:#ffffff;fill-opacity:1;fill-rule:evenodd;stroke:none" id="path12"/>
			<path d="m 1715.63,1144.97 c -82.58,53.49 -447.24,173.37 -918.583,173.37 -174.832,0 -380.426,-22.38 -432.18,-29.38 -50.347,-5.59 -62.941,19.58 -55.945,65.74 6.992,46.15 39.16,100.7 107.699,123.08 68.527,22.38 276.93,37.77 384.625,37.77 107.699,0 608.054,-24.61 889.184,-244.2 36.05,-36.05 41.17,-101.6 38.37,-119.79 -0.69,-9.1 -9.3,-9.3 -13.17,-6.59" style="fill:#393a8c;fill-opacity:1;fill-rule:nonzero;stroke:none" id="path16"/>
			<path d="m 1585.89,1460.53 c -45.26,36.52 -338.47,234.04 -797.234,234.04 -165.039,0 -183.222,-48.95 -183.222,-48.95 l -12.586,-30.77 c 0,0 -4.196,-48.95 69.933,-44.76 86.715,8.39 92.313,5.6 120.282,5.6 27.976,0 509.107,0 834.997,-225.19 18.18,-13.98 27.97,-4.2 20.98,19.59 -7,23.77 -26.58,68.98 -53.15,90.44" style="fill:#393a8c;fill-opacity:1;fill-rule:nonzero;stroke:none" id="path18"/>
			<path d="m 1080.98,1764.5 c -24.93,3.53 -44.76,-12.59 -25.18,-41.95 12.59,-16.79 72.73,-32.18 114.69,-44.76 41.96,-12.59 169.23,-57.34 184.62,-67.14 15.39,-9.79 54.55,-12.58 27.97,32.17 -30.77,46.16 -173.43,103.5 -302.1,121.68" style="fill:#393a8c;fill-opacity:1;fill-rule:nonzero;stroke:none" id="path20"/>
			<path d="M 1728.55,909.926 C 1623.65,866.57 1280.98,791.043 794.254,791.043 c -131.473,0 -429.387,20.98 -460.16,27.973 -41.957,8.394 -82.52,-2.797 -95.11,-68.536 -6.992,-36.363 18.188,-144.062 83.922,-170.632 65.739,-26.575 317.492,-61.543 467.149,-61.543 149.66,0 717.505,47.554 935.695,260.152 30.77,40.559 25.18,99.305 25.18,123.078 0,18.184 -22.38,8.391 -22.38,8.391" style="fill:#393a8c;fill-opacity:1;fill-rule:nonzero;stroke:none" id="path22"/>
			<path d="m 1676.8,694.535 c -61.54,-51.75 -316.09,-265.742 -904.925,-265.742 -23.777,0 -138.469,2.793 -180.43,9.785 -41.953,6.996 -78.32,-23.773 -78.32,-51.75 0,-27.969 8.391,-99.301 137.066,-124.476 79.723,-15.387 261.551,-5.594 356.659,6.992 114.69,15.386 346.86,61.543 531.49,200.011 162.24,110.493 153.85,212.594 153.85,212.594 0,0 -2.8,22.379 -15.39,12.586" style="fill:#393a8c;fill-opacity:1;fill-rule:nonzero;stroke:none" id="path24"/>
			<path d="m 1426.45,367.25 c -30.78,-18.184 -152.46,-86.715 -274.14,-118.887 -89.51,-26.57 -88.11,-75.523 -88.11,-75.523 0,0 1.39,-27.977 107.69,8.387 106.29,36.371 226.58,82.527 283.93,159.449 25.17,50.351 -29.37,26.574 -29.37,26.574" style="fill:#393a8c;fill-opacity:1;fill-rule:nonzero;stroke:none" id="path26"/>
			<path d="M 406.67 921.445 L 406.67 1127.315 L 506.08 1127.315 C 523.72 1127.315 539.51 1124.665 553.43 1119.375 C 567.35 1114.085 579.11 1106.635 588.72 1097.025 C 598.52 1087.615 605.98 1076.735 611.07 1064.375 C 616.17 1052.025 618.72 1038.695 618.72 1024.385 C 618.72 1010.065 616.17 996.635 611.07 984.085 C 605.98 971.545 598.52 960.565 588.72 951.155 C 579.11 941.735 567.35 934.385 553.43 929.095 C 539.51 923.995 523.72 921.445 506.08 921.445 L 406.67 921.445 Z M 450.79 953.505 L 446.08 961.145 L 504.61 961.145 C 516.18 961.145 526.18 962.815 534.61 966.145 C 543.23 969.485 550.39 973.995 556.08 979.675 C 561.76 985.555 565.98 992.325 568.72 999.975 C 571.47 1007.615 572.84 1015.755 572.84 1024.385 C 572.84 1033.205 571.47 1041.345 568.72 1048.795 C 565.98 1056.435 561.76 1063.105 556.08 1068.785 C 550.39 1074.675 543.23 1079.275 534.61 1082.615 C 526.18 1085.945 516.18 1087.615 504.61 1087.615 L 445.2 1087.615 L 450.79 1094.675 L 450.79 953.505 Z M 771.63 918.505 C 756.73 918.505 743.1 919.975 730.75 922.915 C 718.39 926.055 707.22 930.365 697.22 935.855 C 687.42 941.545 678.49 948.405 670.46 956.445 L 694.28 990.555 C 707.41 978.015 720.55 969.085 733.69 963.795 C 747.02 958.695 760.65 956.155 774.57 956.155 C 781.63 956.155 788.49 956.935 795.15 958.505 C 801.82 960.265 807.31 962.915 811.62 966.445 C 816.13 969.975 818.39 974.575 818.39 980.265 C 818.39 983.995 817.31 987.125 815.15 989.675 C 813 992.225 810.06 994.285 806.33 995.855 C 802.61 997.615 798.29 999.085 793.39 1000.265 C 788.49 1001.445 783.29 1002.425 777.8 1003.205 C 772.51 1003.985 767.22 1004.775 761.92 1005.555 C 749.57 1007.325 738.3 1009.875 728.1 1013.205 C 718.1 1016.535 709.57 1020.755 702.51 1025.855 C 695.65 1030.945 690.36 1037.025 686.63 1044.085 C 683.1 1051.145 681.34 1059.185 681.34 1068.205 C 681.34 1077.805 683.59 1086.535 688.1 1094.375 C 692.81 1102.415 699.28 1109.185 707.51 1114.675 C 715.75 1120.165 725.35 1124.275 736.33 1127.025 C 747.31 1129.965 758.98 1131.435 771.33 1131.435 C 785.06 1131.435 797.31 1130.065 808.1 1127.315 C 819.08 1124.575 828.68 1120.745 836.92 1115.845 C 845.35 1110.945 852.31 1105.065 857.8 1098.195 L 832.8 1068.495 C 827.7 1073.985 821.82 1078.495 815.15 1082.025 C 808.49 1085.755 801.33 1088.595 793.68 1090.555 C 786.04 1092.515 778.39 1093.495 770.74 1093.495 C 762.31 1093.495 754.86 1092.615 748.39 1090.845 C 741.92 1089.275 736.82 1086.825 733.1 1083.495 C 729.37 1080.165 727.51 1076.145 727.51 1071.435 C 727.51 1067.325 728.88 1063.795 731.63 1060.855 C 734.57 1057.905 738.39 1055.455 743.1 1053.495 C 747.8 1051.735 753.2 1050.165 759.28 1048.795 C 765.35 1047.615 771.82 1046.635 778.69 1045.855 C 790.06 1044.085 800.84 1041.935 811.04 1039.385 C 821.43 1037.025 830.64 1033.695 838.68 1029.385 C 846.72 1025.065 853 1019.385 857.5 1012.325 C 862.01 1005.265 864.27 996.445 864.27 985.855 C 864.27 971.735 860.35 959.675 852.5 949.675 C 844.66 939.675 833.78 931.935 819.86 926.445 C 805.94 921.155 789.86 918.505 771.63 918.505 Z M 933.99 921.445 L 933.99 1127.315 L 978.1 1127.315 L 978.1 961.145 L 1097.51 961.145 L 1097.51 921.445 L 933.99 921.445 Z M 1265.25 918.505 C 1248.78 918.505 1233.39 920.955 1219.07 925.855 C 1204.95 930.955 1192.6 938.205 1182.02 947.625 C 1171.43 957.225 1163.1 968.595 1157.02 981.735 C 1151.13 994.875 1148.19 1009.285 1148.19 1024.965 C 1148.19 1040.265 1151.23 1054.285 1157.31 1067.025 C 1163.39 1079.965 1171.72 1091.245 1182.31 1100.845 C 1193.09 1110.455 1205.54 1117.805 1219.66 1122.905 C 1233.97 1128.005 1249.36 1130.555 1265.83 1130.555 C 1277.8 1130.555 1289.36 1129.085 1300.54 1126.145 C 1311.71 1123.195 1321.91 1119.275 1331.13 1114.375 C 1340.54 1109.475 1348.48 1103.885 1354.95 1097.615 L 1328.77 1063.795 C 1323.09 1068.695 1317.01 1073.005 1310.54 1076.735 C 1304.26 1080.655 1297.21 1083.695 1289.36 1085.845 C 1281.72 1088.205 1273.19 1089.375 1263.78 1089.375 C 1254.76 1089.375 1246.03 1087.905 1237.6 1084.965 C 1229.37 1082.025 1221.92 1077.715 1215.25 1072.025 C 1208.58 1066.535 1203.19 1059.775 1199.07 1051.735 C 1195.15 1043.695 1193.19 1034.675 1193.19 1024.675 C 1193.19 1014.285 1195.25 1004.975 1199.37 996.735 C 1203.49 988.695 1209.07 981.835 1216.13 976.145 C 1223.19 970.655 1231.23 966.445 1240.25 963.505 C 1249.46 960.755 1259.17 959.385 1269.36 959.385 C 1278.78 959.385 1287.3 960.655 1294.95 963.205 C 1302.79 965.955 1309.85 969.185 1316.13 972.915 C 1322.4 976.835 1327.89 980.855 1332.6 984.975 L 1353.77 950.265 C 1348.48 945.365 1341.22 940.465 1332.01 935.565 C 1322.99 930.665 1312.7 926.545 1301.13 923.215 C 1289.56 920.075 1277.6 918.505 1265.25 918.505 Z M 1504.01 918.505 C 1489.11 918.505 1475.48 919.975 1463.13 922.915 C 1450.78 926.055 1439.6 930.365 1429.6 935.855 C 1419.8 941.545 1410.88 948.405 1402.84 956.445 L 1426.66 990.555 C 1439.8 978.015 1452.93 969.085 1466.07 963.795 C 1479.4 958.695 1493.03 956.155 1506.95 956.155 C 1514.01 956.155 1520.87 956.935 1527.54 958.505 C 1534.2 960.265 1539.69 962.915 1544.01 966.445 C 1548.52 969.975 1550.77 974.575 1550.77 980.265 C 1550.77 983.995 1549.69 987.125 1547.54 989.675 C 1545.38 992.225 1542.44 994.285 1538.71 995.855 C 1534.99 997.615 1530.67 999.085 1525.77 1000.265 C 1520.87 1001.445 1515.68 1002.425 1510.19 1003.205 C 1504.89 1003.985 1499.6 1004.775 1494.3 1005.555 C 1481.95 1007.325 1470.68 1009.875 1460.48 1013.205 C 1450.48 1016.535 1441.95 1020.755 1434.89 1025.855 C 1428.03 1030.945 1422.74 1037.025 1419.01 1044.085 C 1415.48 1051.145 1413.72 1059.185 1413.72 1068.205 C 1413.72 1077.805 1415.97 1086.535 1420.48 1094.375 C 1425.19 1102.415 1431.66 1109.185 1439.89 1114.675 C 1448.13 1120.165 1457.74 1124.275 1468.72 1127.025 C 1479.7 1129.965 1491.36 1131.435 1503.71 1131.435 C 1517.44 1131.435 1529.69 1130.065 1540.48 1127.315 C 1551.46 1124.575 1561.07 1120.745 1569.3 1115.845 C 1577.73 1110.945 1584.69 1105.065 1590.18 1098.195 L 1565.18 1068.495 C 1560.08 1073.985 1554.2 1078.495 1547.54 1082.025 C 1540.87 1085.755 1533.71 1088.595 1526.07 1090.555 C 1518.42 1092.515 1510.77 1093.495 1503.13 1093.495 C 1494.7 1093.495 1487.25 1092.615 1480.78 1090.845 C 1474.3 1089.275 1469.21 1086.825 1465.48 1083.495 C 1461.76 1080.165 1459.89 1076.145 1459.89 1071.435 C 1459.89 1067.325 1461.27 1063.795 1464.01 1060.855 C 1466.95 1057.905 1470.78 1055.455 1475.48 1053.495 C 1480.19 1051.735 1485.58 1050.165 1491.66 1048.795 C 1497.73 1047.615 1504.2 1046.635 1511.07 1045.855 C 1522.44 1044.085 1533.22 1041.935 1543.42 1039.385 C 1553.81 1037.025 1563.02 1033.695 1571.06 1029.385 C 1579.1 1025.065 1585.38 1019.385 1589.89 1012.325 C 1594.4 1005.265 1596.65 996.445 1596.65 985.855 C 1596.65 971.735 1592.73 959.675 1584.89 949.675 C 1577.04 939.675 1566.16 931.935 1552.24 926.445 C 1538.32 921.155 1522.24 918.505 1504.01 918.505 Z" fill="url(#paint0_linear_96_17)" style="opacity: 1;"/>
		</g>
	</g>
</svg>